<?xml version="1.0" encoding="UTF-8" standalone="no"?>
<svg
   xmlns:dc="http://purl.org/dc/elements/1.1/"
   xmlns:cc="http://creativecommons.org/ns#"
   xmlns:rdf="http://www.w3.org/1999/02/22-rdf-syntax-ns#"
   xmlns:svg="http://www.w3.org/2000/svg"
   xmlns="http://www.w3.org/2000/svg"
   xmlns:sodipodi="http://sodipodi.sourceforge.net/DTD/sodipodi-0.dtd"
   xmlns:inkscape="http://www.inkscape.org/namespaces/inkscape"
   aria-hidden="true"
   focusable="false"
   data-prefix="fas"
   data-icon="ad"
   class="svg-inline--fa fa-ad fa-w-16"
   role="img"
   viewBox="0 0 512 512"
   version="1.1"
   id="svg4"
   sodipodi:docname="icon.svg"
   inkscape:version="1.0.1 (3bc2e813f5, 2020-09-07)"
   inkscape:export-filename="/home/nikinik/Dokumente/Programmirung/extensions/firefox/toronto/images/icon_x1024.png"
   inkscape:export-xdpi="192"
   inkscape:export-ydpi="192">
  <metadata
     id="metadata10">
    <rdf:RDF>
      <cc:Work
         rdf:about="">
        <dc:format>image/svg+xml</dc:format>
        <dc:type
           rdf:resource="http://purl.org/dc/dcmitype/StillImage" />
      </cc:Work>
    </rdf:RDF>
  </metadata>
  <defs
     id="defs8">
    <clipPath
       clipPathUnits="userSpaceOnUse"
       id="clipPath853">
      <path
         id="path855"
         d="M 1.732334,79.981243 C -19.806996,64.544039 -49.806824,69.494819 -65.244029,91.034151 L -233.01439,325.12197 c -15.43721,21.53933 -10.48643,51.53915 11.0529,66.97636 L 116.16536,634.4333 c 21.53933,15.4372 51.53915,10.48642 66.97636,-11.05291 L 350.91208,389.29258 c 15.43721,-21.53934 10.48642,-51.53916 -11.05291,-66.97637 z" />
    </clipPath>
  </defs>
  <sodipodi:namedview
     pagecolor="#ffffff"
     bordercolor="#666666"
     borderopacity="1"
     objecttolerance="10"
     gridtolerance="10"
     guidetolerance="10"
     inkscape:pageopacity="0"
     inkscape:pageshadow="2"
     inkscape:window-width="1366"
     inkscape:window-height="705"
     id="namedview6"
     showgrid="false"
     inkscape:zoom="0.46386719"
     inkscape:cx="60.139201"
     inkscape:cy="170.65475"
     inkscape:window-x="0"
     inkscape:window-y="0"
     inkscape:window-maximized="1"
     inkscape:current-layer="svg4" />
  <g
     id="g861">
    <path
       id="path2"
       style="fill:#666666"
       d="M 48 64 C 21.5 64 0 85.5 0 112 L 0 383.35156 L 90.578125 318.43555 L 140 176.11914 A 23.995 23.995 0 0 1 162.66992 160 L 189.33008 160 A 23.99 23.99 0 0 1 212 176.13086 L 227.37109 220.39648 L 445.58594 64 L 48 64 z M 512 124.42773 L 424 187.49805 L 424 336 C 424 344.84 416.84 352 408 352 L 392 352 C 387.15 352 382.95953 349.73031 380.01953 346.32031 C 371.39953 349.98031 361.93 352 352 352 C 315.7552 352 285.69518 325.0724 280.73438 290.17578 L 257.40625 306.89453 L 265.68945 330.75 C 269.29945 341.15 261.58008 352 250.58008 352 L 233.64062 352 C 226.83062 352 220.75953 347.68 218.51953 341.25 L 216.71875 336.05664 L 60.525391 448 L 464 448 C 490.5 448 512 426.5 512 400 L 512 124.42773 z M 176 218.7793 L 158.23242 269.94727 L 186.68555 249.55469 L 176 218.7793 z M 352 256 C 338.77 256 328 266.77 328 280 C 328 293.23 338.77 304 352 304 C 365.23 304 376 293.23 376 280 C 376 266.77 365.23 256 352 256 z " />
    <rect
       style="opacity:0.996;fill:#ff8080;fill-opacity:1;stroke-width:1.03329"
       id="rect841"
       width="861.57587"
       height="51.218948"
       x="-418.87991"
       y="329.88275"
       transform="rotate(-35.629109)"
       clip-path="url(#clipPath853)" />
  </g>
</svg>
